<svg viewBox="0 0 109 109" xmlns="http://www.w3.org/2000/svg" fill-rule="evenodd" clip-rule="evenodd" stroke-linecap="round" stroke-linejoin="round"><path d="M54.3 8.7c25.184 0 45.598 20.416 45.598 45.6S79.484 99.899 54.3 99.899c-25.183 0-45.599-20.415-45.599-45.599 0-25.184 20.416-45.6 45.599-45.6z" fill="#00f2a9" fill-rule="nonzero" stroke="#00f2a9" stroke-width="3"/><path d="M54.299 1.5c29.16 0 52.799 23.64 52.799 52.8 0 29.159-23.639 52.799-52.799 52.799S1.5 83.459 1.5 54.3c0-29.16 23.639-52.8 52.799-52.8z" fill="none" stroke="#00f2a9" stroke-width="3"/><path d="M45.631 20.766c-1.392.02-2.647.916-3.599 2.373-2.015-1.954-4.325-2.795-6.104-1.948-2.113 1.008-2.851 4.106-2.073 7.603-.354.172-.687.38-.962.667-1.775 1.842-1.072 5.399 1.572 7.947 2.642 2.549 6.224 3.121 8 1.277.073-.077.117-.173.183-.256a3.42 3.42 0 00.546-.063c.804.74 1.723 1.159 2.698 1.146 3.05-.042 5.464-4.272 5.392-9.449-.07-5.177-2.601-9.338-5.653-9.297z" fill="#00f2a9" fill-rule="nonzero" stroke="#322153" stroke-width="3" stroke-linecap="butt" stroke-linejoin="miter"/><path d="M65.352 21.687v-3.944H51.694v3.944l-5.443 6.543v42.14h24.544V28.23l-5.443-6.543z" fill="#a5e5ef" fill-rule="nonzero" stroke="#322153" stroke-linecap="butt" stroke-linejoin="miter"/><path d="M65.352 21.687v-3.944H51.694v3.944l-5.443 6.543v42.14h24.544V28.23l-5.443-6.543z" fill="none" stroke="#322153" stroke-width="3"/><path d="M70.795 70.369H59.911V28.23l5.441-6.543 5.443 6.543v42.139z" fill="#a5e5ef" fill-rule="nonzero" stroke="#322153" stroke-width="3"/><path d="M47.088 35.3a8.164 8.164 0 018.165 8.165 8.164 8.164 0 11-8.165-8.165z" fill="#f0f34e" fill-rule="nonzero" stroke="#322153" stroke-width="3"/><path d="M49.466 66.313s-7.394-27.9-8.535-30.205c-1.138-2.304-3.083-3.24-7.038-1.287-3.952 1.954-4.385 4.069-3.248 6.374 1.139 2.303 18.82 25.118 18.82 25.118z" fill="#febe5f" fill-rule="nonzero" stroke="#322153" stroke-width="3"/><path d="M74.493 68.488c-1.13 4.087-4.513 6.718-9.447 5.353-4.931-1.365-6.48-5.359-5.35-9.446L70.333 25.93c1.131-4.086 4.179-6.809 9.444-5.351 5.266 1.455 6.482 5.358 5.351 9.444L74.493 68.488z" fill="#f4b060" fill-rule="nonzero" stroke="#322153" stroke-width="3"/><path d="M74.68 29.532l3.982 4.552M72.535 37.289l3.982 4.55" fill="none" stroke="#322153" stroke-width="3"/><path d="M31.218 47.142v42.412h38.538l12.857-3.069V47.142H31.218z" fill="#fccc8e" fill-rule="nonzero" stroke="#322153" stroke-width="3"/><path d="M69.756 47.142v42.412" fill="none" stroke="#322153" stroke-width="3"/><path d="M41.271 73.091c-2.072-.556-4.274.301-6.023 2.078-1.75-1.777-3.953-2.634-6.025-2.078-3.584.96-5.41 5.761-4.081 10.723 1.329 4.962 5.313 8.205 8.897 7.245a5.002 5.002 0 001.209-.508c.377.219.779.392 1.21.508 3.583.96 7.565-2.283 8.894-7.245 1.331-4.962-.496-9.763-4.081-10.723z" fill="#ff5c66" fill-rule="nonzero" stroke="#322153" stroke-width="3"/><path d="M28.423 65.238c-1.028 2.056-1.096 4.403.046 6.337 1.42 2.403 4.31 3.478 7.237 2.981 1.131-2.07 1.249-4.485.084-6.455-1.436-2.431-4.406-3.475-7.367-2.863z" fill="#7bbf7b" fill-rule="nonzero" stroke="#322153" stroke-width="3"/></svg>