<svg viewBox="0 0 385 109" xmlns="http://www.w3.org/2000/svg" fill-rule="evenodd" clip-rule="evenodd" stroke-linecap="round" stroke-linejoin="round"><path fill="none" d="M0 0h385v108.599H0z"/><path d="M420.946-841.025c25.184 0 45.598-20.416 45.598-45.6s-20.414-45.599-45.598-45.599c-25.183 0-45.599 20.415-45.599 45.599 0 25.184 20.416 45.6 45.599 45.6z" fill="#00f2a9" fill-rule="nonzero" stroke="#00f2a9" stroke-width="3" transform="matrix(1 0 0 -1 -366.616 -832.325)"/><path d="M420.945-833.825c29.16 0 52.799-23.64 52.799-52.8 0-29.159-23.639-52.799-52.799-52.799s-52.799 23.64-52.799 52.799c0 29.16 23.639 52.8 52.799 52.8z" fill="none" stroke="#00f2a9" stroke-width="3" transform="matrix(1 0 0 -1 -366.616 -832.325)"/><path d="M127.394 60.995c.646-.792 1.836-.9 2.627-.252 1.584 1.296 4.32 2.808 6.877 2.772 1.8 0 3.42-.54 4.5-1.332s1.547-1.692 1.547-2.592c0-.468-.108-.792-.325-1.152-.214-.36-.539-.72-1.08-1.08-1.043-.684-2.806-1.296-4.93-1.692h-.074c-1.69-.324-3.275-.756-4.642-1.404-1.369-.649-2.557-1.548-3.35-2.808a5.534 5.534 0 01-.828-2.952c0-2.16 1.225-4.032 2.881-5.256 1.691-1.224 3.89-1.908 6.228-1.908 3.456 0 6.012 1.691 7.848 2.88.828.576 1.08 1.728.504 2.556a1.819 1.819 0 01-2.557.54c-1.836-1.224-3.599-2.304-5.795-2.304-1.62 0-3.06.504-4.033 1.224-.97.72-1.367 1.512-1.367 2.268 0 .432.072.72.252 1.008.18.288.504.612.973.936.935.648 2.554 1.224 4.5 1.583h.072c1.836.361 3.527.83 4.967 1.513 1.476.72 2.771 1.655 3.6 2.987.54.865.865 1.945.865 3.061 0 2.304-1.297 4.284-3.096 5.58-1.766 1.296-4.106 2.052-6.66 2.052-3.889-.036-7.164-1.98-9.217-3.6-.79-.648-.9-1.836-.287-2.628zM163.515 57.36l-2.916-7.74-2.916 7.74h5.832zm1.476 3.96h-8.748L154.48 66a2.02 2.02 0 01-1.873 1.26 2.1 2.1 0 01-.684-.109c-1.045-.396-1.549-1.548-1.187-2.592l7.955-21.204c.324-.792 1.117-1.296 1.908-1.26.828-.036 1.584.468 1.908 1.26l7.957 21.204c.36 1.044-.144 2.196-1.189 2.592-.18.072-.432.108-.684.108-.79 0-1.549-.468-1.836-1.26l-1.764-4.68zM175.622 65.28V44.04c0-1.08.864-1.98 1.981-1.98h11.771c1.045 0 1.981.9 1.981 1.98 0 1.115-.936 2.015-1.98 2.015h-9.757v6.588h8.39c1.08 0 1.978.936 1.978 1.98 0 1.116-.899 2.016-1.979 2.016h-8.389v8.64c0 1.08-.9 1.98-2.015 1.98-1.117 0-1.98-.9-1.98-1.98zM196.974 65.28V44.04c0-1.117.865-1.98 1.98-1.98h11.772c1.045 0 1.98.863 1.98 1.98 0 1.115-.935 2.015-1.98 2.015h-9.756v6.588h8.39c1.08 0 1.98.936 1.98 1.98 0 1.116-.9 2.016-1.98 2.016h-8.39v6.624h9.756c1.045 0 1.98.9 1.98 2.016 0 1.08-.935 1.98-1.98 1.98h-11.664c-.073 0-.073-.036-.073-.036l-.035.036c-1.115 0-1.98-.9-1.98-1.98zM240.457 44.04v21.24c0 1.08-.936 1.98-2.016 1.98-1.118 0-1.98-.9-1.98-1.98V50.122l-5.184 7.2c-.397.54-.973.828-1.62.828h-.074c-.646 0-1.26-.288-1.656-.828l-5.146-7.2V65.28c0 1.08-.9 1.98-2.016 1.98-1.08 0-1.98-.9-1.98-1.98V44.04c0-1.08.9-1.98 1.98-1.98h.107c.576 0 1.225.288 1.584.828l7.164 9.936 7.164-9.936c.397-.54.971-.828 1.62-.828h.037c1.08.036 2.016.9 2.016 1.98zM259.518 57.36l-2.916-7.74-2.916 7.74h5.832zm1.476 3.96h-8.748L250.483 66a2.021 2.021 0 01-1.873 1.26 2.1 2.1 0 01-.684-.109c-1.043-.396-1.547-1.548-1.187-2.592l7.955-21.204c.324-.792 1.117-1.296 1.908-1.26.828-.036 1.584.468 1.908 1.26l7.957 21.204c.359 1.044-.144 2.196-1.19 2.592-.18.072-.431.108-.683.108-.791 0-1.547-.468-1.836-1.26l-1.764-4.68zM283.516 49.8c0-2.089-1.656-3.745-3.707-3.745h-4.428v7.416h4.428c2.05 0 3.707-1.656 3.707-3.672zm5.04 14.471c.36 1.044-.216 2.16-1.26 2.52a3.133 3.133 0 01-.792.108h-.035c-.361 0-.9-.07-1.404-.396-.47-.288-.866-.756-1.153-1.259-.504-1.044-.755-2.34-.755-4.32-.036-.685-.18-1.153-.432-1.549-.217-.396-.65-.755-1.08-1.044-.756-.503-1.694-.792-2.016-.864h-4.248v7.812c0 1.08-.9 1.98-2.017 1.98-1.116 0-1.98-.9-1.98-1.98V44.04c0-1.116.864-1.98 1.98-1.98h6.445c4.283 0 7.703 3.456 7.703 7.74 0 2.376-1.08 4.464-2.807 5.904.467.36.899.792 1.26 1.333a6.82 6.82 0 011.188 3.887c-.038 1.08.072 1.764.144 2.124.576.18 1.043.613 1.26 1.224zM294.842 65.28V44.22c0-1.045.863-1.98 1.979-1.98 1.117 0 1.98.935 1.98 1.98V54.55l11.664-11.7a1.957 1.957 0 012.809 0c.756.756.756 2.016 0 2.808l-7.92 7.884 7.992 10.476c.719.828.576 2.088-.29 2.772a1.82 1.82 0 01-1.26.468c-.538 0-1.08-.252-1.473-.72l-7.778-10.188-3.744 3.816v5.112c0 1.08-.863 1.98-1.98 1.98-1.116 0-1.98-.9-1.98-1.98zM320.117 65.28V44.04c0-1.117.866-1.98 1.98-1.98h11.772c1.045 0 1.98.863 1.98 1.98 0 1.115-.935 2.015-1.98 2.015h-9.755v6.588h8.388c1.08 0 1.98.936 1.98 1.98 0 1.116-.9 2.016-1.98 2.016h-8.388v6.624h9.755c1.045 0 1.98.9 1.98 2.016 0 1.08-.935 1.98-1.98 1.98h-11.664c-.072 0-.072-.036-.072-.036l-.035.036c-1.115 0-1.981-.9-1.981-1.98zM357.68 46.055h-5.725V65.28a1.95 1.95 0 01-1.978 1.98 1.975 1.975 0 01-1.981-1.98V46.055h-5.687c-1.117 0-1.981-.936-1.981-2.016 0-1.116.864-1.98 1.98-1.98h15.372c1.08 0 1.98.864 1.98 1.98 0 1.08-.9 2.016-1.98 2.016z" fill="#322153" fill-rule="nonzero"/><path d="M412.277-900.817c-1.392-.02-2.647-.916-3.599-2.373-2.015 1.954-4.325 2.795-6.104 1.948-2.113-1.008-2.851-4.106-2.073-7.603-.354-.172-.687-.38-.962-.667-1.775-1.842-1.072-5.399 1.572-7.947 2.642-2.549 6.224-3.121 8-1.277.073.077.117.173.183.256.185.006.367.028.546.063.804-.74 1.723-1.159 2.698-1.146 3.05.042 5.464 4.272 5.392 9.449-.07 5.177-2.601 9.338-5.653 9.297z" fill="#00f2a9" fill-rule="nonzero" stroke="#322153" stroke-width="3" stroke-linecap="butt" stroke-linejoin="miter" transform="matrix(1 0 0 -1 -366.616 -880.05)"/><path d="M431.998-874.499v3.944H418.34v-3.944l-5.443-6.543v-42.14h24.544v42.14l-5.443 6.543z" fill="#a5e5ef" fill-rule="nonzero" stroke="#322153" stroke-linecap="butt" stroke-linejoin="miter" transform="matrix(1 0 0 -1 -366.616 -852.812)"/><path d="M431.998-874.499v3.944H418.34v-3.944l-5.443-6.543v-42.14h24.544v42.14l-5.443 6.543z" fill="none" stroke="#322153" stroke-width="3" transform="matrix(1 0 0 -1 -366.616 -852.812)"/><path d="M437.441-919.237h-10.884v42.139l5.441 6.543 5.443-6.543v-42.139z" fill="#a5e5ef" fill-rule="nonzero" stroke="#322153" stroke-width="3" transform="matrix(1 0 0 -1 -366.616 -848.868)"/><g><path d="M413.734-889.295a8.164 8.164 0 008.165-8.165 8.164 8.164 0 10-8.165 8.165z" fill="#f0f34e" fill-rule="nonzero" stroke="#322153" stroke-width="3" transform="matrix(1 0 0 -1 -366.616 -853.995)"/></g><g><path d="M404.601-910.747s-5.739 28.286-5.738 30.858c-.001 2.57 1.327 4.272 5.738 4.273 4.409.001 5.734-1.703 5.737-4.273 0-2.57-5.737-30.858-5.737-30.858z" fill="#febe5f" fill-rule="nonzero" stroke="#322153" stroke-width="3" transform="rotate(153.688 112.86 -463.718)"/></g><g><path d="M441.139-915.085c-1.13-4.087-4.513-6.718-9.447-5.353-4.931 1.365-6.48 5.359-5.35 9.446l10.637 38.465c1.131 4.086 4.179 6.809 9.444 5.351 5.266-1.455 6.482-5.358 5.351-9.444l-10.635-38.465z" fill="#f4b060" fill-rule="nonzero" stroke="#322153" stroke-width="3" transform="matrix(1 0 0 -1 -366.616 -846.596)"/></g><g><path d="M440.293-909.116h6.048" fill="none" stroke="#322153" stroke-width="3" transform="rotate(48.817 -776.716 -842.6)"/></g><g><path d="M438.15-901.359h6.047" fill="none" stroke="#322153" stroke-width="3" transform="rotate(48.811 -779.007 -834.9)"/></g><g><path d="M397.864-851.369v-42.412h38.538l12.857 3.069v39.343h-51.395z" fill="#fccc8e" fill-rule="nonzero" stroke="#322153" stroke-width="3" transform="matrix(1 0 0 -1 -366.616 -804.226)"/></g><g><path d="M415.196-872.575h42.412" fill="none" stroke="#322153" stroke-width="3" transform="rotate(90 -217.368 -585.421)"/></g><g><path d="M407.917-849.461c-2.072.556-4.274-.301-6.023-2.078-1.75 1.777-3.953 2.634-6.025 2.078-3.584-.96-5.41-5.761-4.081-10.723 1.329-4.962 5.313-8.205 8.897-7.245.429.116.832.289 1.209.508a4.976 4.976 0 011.21-.508c3.583-.96 7.565 2.283 8.894 7.245 1.331 4.962-.496 9.763-4.081 10.723z" fill="#ff5c66" fill-rule="nonzero" stroke="#322153" stroke-width="3" transform="matrix(1 0 0 -1 -366.616 -776.37)"/></g><g><path d="M398.692-876.996c-2.076.987-3.575 2.794-3.866 5.021-.36 2.768 1.254 5.395 3.866 6.805 2.166-.934 3.746-2.764 4.042-5.034.365-2.8-1.332-5.451-4.042-6.792z" fill="#7bbf7b" fill-rule="nonzero" stroke="#322153" stroke-width="3" transform="rotate(-38.01 1581.406 131.584)"/></g></svg>